<?xml version="1.0" standalone="no"?>
<svg xmlns="http://www.w3.org/2000/svg" viewBox="0 0 156 66" width="156" height="66"><g fill="#ff8888" color="#ff8888" transform="translate(63.266 0) scale(0.5740741) "><svg width="51.0" height="54.0" x="0.0" y="0.0" viewBox="0 0 51 54"><path fill="currentColor" fill-rule="evenodd" d="M28.58 14.169c5.536 1.088 7.414 1.494 7.385 1.577-.028.065 1.047 3.32 2.396 7.241 1.349 3.911 2.452 7.14 2.452 7.168 0 .036-.085.101-.179.147-.104.055-2.32 2.454-4.923 5.35-2.604 2.897-4.877 5.415-5.056 5.618-.245.258-.35.323-.406.24-.047-.074-3.084-.71-7.659-1.615l-7.574-1.494.02-.221c.018-.12-1.076-3.395-2.406-7.278-2.113-6.125-2.415-7.066-2.283-7.122.085-.027 2.443-2.592 5.226-5.682 5.055-5.599 5.074-5.617 5.32-5.507.141.065 3.593.775 7.687 1.578M22.175.129c-.028.074-.34 2.63-.679 5.692-.5 4.353-.66 5.571-.773 5.626-.076.047-4.707 1.098-10.281 2.343C4.867 15.036.245 16.087.17 16.124c-.075.046-.15.12-.17.175-.019.056 2.085 1.624 4.688 3.497 2.594 1.863 4.707 3.44 4.688 3.496-.16.396-6.197 19.721-6.197 19.823 0 .074.056.147.123.166.056.027 2.508-.978 5.442-2.242 2.933-1.254 5.357-2.26 5.386-2.223 1.264 1.365 14.299 15.045 14.403 15.119.094.065.207.083.264.046.056-.037.368-2.398.735-5.691.35-3.1.67-5.655.698-5.683.038-.027.66-.184 1.387-.34 3.207-.711 19.072-4.272 19.223-4.318a.241.241 0 0 0 .16-.212c0-.102-1.585-1.291-4.546-3.432-2.5-1.789-4.603-3.311-4.679-3.366-.103-.074.387-1.753 2.934-9.87 1.688-5.37 3.093-9.88 3.131-10.009.038-.166.02-.258-.075-.295-.076-.028-2.5.968-5.386 2.204-2.886 1.237-5.291 2.26-5.33 2.279-.046.01-3.065-3.118-6.705-6.946C22.514.074 22.439 0 22.317 0c-.047 0-.113.055-.142.13"></path></svg></g><line x1="64.14344444444444" y1="37" x2="91.66455555555555" y2="37" stroke="#3b52da" stroke-linecap="round"></line><path fill="#3b52da" fill-rule="nonzero" d="M6.98 4.44Q9.89 4.44 11.71 5.41Q13.54 6.38 13.54 8.57L13.54 8.57L13.54 13.51Q13.54 13.92 13.73 14.18Q13.92 14.45 14.30 14.45L14.30 14.45L15.17 14.45L15.17 17.21Q15.10 17.26 14.80 17.36Q14.50 17.47 13.94 17.58Q13.39 17.69 12.67 17.69L12.67 17.69Q11.28 17.69 10.38 17.27Q9.48 16.85 9.14 16.10L9.14 16.10Q8.23 16.82 7.10 17.26Q5.98 17.69 4.46 17.69L4.46 17.69Q0 17.69 0 14.14L0 14.14Q0 12.29 1.00 11.32Q1.99 10.34 3.86 9.98Q5.74 9.62 8.76 9.62L8.76 9.62L8.76 9.00Q8.76 8.26 8.24 7.87Q7.73 7.49 6.91 7.49L6.91 7.49Q6.17 7.49 5.63 7.75Q5.09 8.02 5.09 8.59L5.09 8.59L5.09 8.69L0.38 8.69Q0.36 8.57 0.36 8.35L0.36 8.35Q0.36 6.55 2.08 5.50Q3.79 4.44 6.98 4.44L6.98 4.44ZM8.76 11.88Q6.72 11.88 5.75 12.32Q4.78 12.77 4.78 13.51L4.78 13.51Q4.78 14.71 6.41 14.71L6.41 14.71Q7.34 14.71 8.05 14.21Q8.76 13.70 8.76 12.96L8.76 12.96L8.76 11.88ZM24.43 4.42Q24.98 4.42 25.42 4.55Q25.85 4.68 25.85 4.70L25.85 4.70L25.85 8.71L24.31 8.71Q22.82 8.71 22.16 9.48Q21.50 10.25 21.50 11.76L21.50 11.76L21.50 17.40L16.73 17.40L16.73 4.73L20.64 4.73L20.95 6.65Q21.38 5.54 22.32 4.98Q23.26 4.42 24.43 4.42L24.43 4.42ZM34.01 4.44Q36.55 4.44 38.32 5.44Q40.08 6.43 40.08 8.52L40.08 8.52L35.64 8.52Q35.64 7.82 35.02 7.54L35.02 7.54Q34.58 7.30 33.94 7.30L33.94 7.30Q32.21 7.30 32.21 8.11L32.21 8.11Q32.21 8.57 32.81 8.76Q33.41 8.95 34.78 9.17L34.78 9.17Q36.46 9.41 37.58 9.73Q38.71 10.06 39.55 10.88Q40.39 11.71 40.39 13.20L40.39 13.20Q40.39 15.62 38.58 16.66Q36.77 17.69 33.84 17.69L33.84 17.69Q32.16 17.69 30.67 17.22Q29.18 16.75 28.25 15.77Q27.31 14.78 27.31 13.27L27.31 13.27L31.75 13.27L31.75 13.37Q31.78 14.18 32.44 14.51Q33.10 14.83 33.84 14.83L33.84 14.83Q35.83 14.83 35.83 13.90L35.83 13.90Q35.83 13.42 35.21 13.20Q34.58 12.98 33.17 12.74L33.17 12.74Q31.46 12.46 30.37 12.12Q29.28 11.78 28.46 10.98Q27.65 10.18 27.65 8.74L27.65 8.74Q27.65 6.41 29.41 5.42Q31.18 4.44 34.01 4.44L34.01 4.44ZM49.20 4.44Q52.68 4.44 54.52 6.07Q56.35 7.70 56.35 11.06L56.35 11.06L56.35 11.88L46.85 11.88Q46.85 13.25 47.46 13.94Q48.07 14.64 49.39 14.64L49.39 14.64Q50.59 14.64 51.16 14.14Q51.72 13.63 51.72 12.79L51.72 12.79L56.35 12.79Q56.35 15.10 54.60 16.39Q52.85 17.69 49.49 17.69L49.49 17.69Q45.96 17.69 44.02 16.04Q42.07 14.40 42.07 11.06L42.07 11.06Q42.07 7.80 43.97 6.12Q45.86 4.44 49.20 4.44L49.20 4.44ZM49.39 7.49Q47.14 7.49 46.87 9.62L46.87 9.62L51.53 9.62Q51.53 8.64 50.96 8.06Q50.40 7.49 49.39 7.49L49.39 7.49ZM67.39 4.44Q69.60 4.44 70.70 5.66Q71.81 6.89 71.81 9.19L71.81 9.19L71.81 17.40L67.03 17.40L67.03 9.77Q67.03 8.95 66.61 8.46Q66.19 7.97 65.42 7.97L65.42 7.97Q64.54 7.97 63.98 8.54Q63.43 9.12 63.43 9.96L63.43 9.96L63.43 17.40L58.66 17.40L58.66 4.73L62.57 4.73L62.88 6.65Q63.62 5.64 64.84 5.04Q66.05 4.44 67.39 4.44L67.39 4.44ZM80.93 4.44Q83.83 4.44 85.66 5.41Q87.48 6.38 87.48 8.57L87.48 8.57L87.48 13.51Q87.48 13.92 87.67 14.18Q87.86 14.45 88.25 14.45L88.25 14.45L89.11 14.45L89.11 17.21Q89.04 17.26 88.74 17.36Q88.44 17.47 87.89 17.58Q87.34 17.69 86.62 17.69L86.62 17.69Q85.22 17.69 84.32 17.27Q83.42 16.85 83.09 16.10L83.09 16.10Q82.18 16.82 81.05 17.26Q79.92 17.69 78.41 17.69L78.41 17.69Q73.94 17.69 73.94 14.14L73.94 14.14Q73.94 12.29 74.94 11.32Q75.94 10.34 77.81 9.98Q79.68 9.62 82.70 9.62L82.70 9.62L82.70 9.00Q82.70 8.26 82.19 7.87Q81.67 7.49 80.86 7.49L80.86 7.49Q80.11 7.49 79.57 7.75Q79.03 8.02 79.03 8.59L79.03 8.59L79.03 8.69L74.33 8.69Q74.30 8.57 74.30 8.35L74.30 8.35Q74.30 6.55 76.02 5.50Q77.74 4.44 80.93 4.44L80.93 4.44ZM82.70 11.88Q80.66 11.88 79.69 12.32Q78.72 12.77 78.72 13.51L78.72 13.51Q78.72 14.71 80.35 14.71L80.35 14.71Q81.29 14.71 82.00 14.21Q82.70 13.70 82.70 12.96L82.70 12.96L82.70 11.88ZM95.62 17.40L90.84 17.40L90.84 0L95.62 0L95.62 17.40ZM112.92 2.35Q112.92 3.82 112.19 4.61Q111.46 5.40 109.99 5.78L109.99 5.78Q110.69 6.31 111.08 7.02Q111.48 7.73 111.48 8.52L111.48 8.52Q111.48 10.54 109.96 11.57Q108.43 12.60 106.15 12.60L106.15 12.60L104.33 12.60Q102.82 12.60 102.82 13.30L102.82 13.30Q102.82 13.63 103.15 13.84Q103.49 14.04 104.33 14.04L104.33 14.04L108.65 14.04Q110.76 14.04 111.84 15.14Q112.92 16.25 112.92 18.10L112.92 18.10Q112.92 19.46 112.20 20.45Q111.48 21.43 110.26 21.94Q109.03 22.44 107.59 22.44L107.59 22.44L100.54 22.44Q99.67 22.44 98.94 22.03Q98.21 21.62 97.78 20.92Q97.34 20.21 97.34 19.34L97.34 19.34Q97.34 18.41 97.92 17.65Q98.50 16.90 99.36 16.51L99.36 16.51Q98.78 16.10 98.45 15.53Q98.11 14.95 98.11 14.28L98.11 14.28Q98.11 13.34 98.81 12.59Q99.50 11.83 100.54 11.57L100.54 11.57Q99.60 10.97 99.05 10.19Q98.50 9.41 98.50 8.54L98.50 8.54Q98.50 6.34 100.28 5.39Q102.07 4.44 105.02 4.44L105.02 4.44Q106.32 4.44 107.11 4.58L107.11 4.58Q108.29 3.84 108.64 3.23Q108.98 2.62 108.98 2.35L108.98 2.35L112.92 2.35ZM104.98 6.94Q104.18 6.94 103.68 7.34Q103.18 7.75 103.18 8.52L103.18 8.52Q103.18 9.31 103.64 9.71Q104.11 10.10 104.98 10.10L104.98 10.10Q105.84 10.10 106.33 9.71Q106.82 9.31 106.82 8.52L106.82 8.52Q106.82 7.73 106.33 7.33Q105.84 6.94 104.98 6.94L104.98 6.94ZM103.13 17.40Q102.58 17.40 102.23 17.70Q101.88 18.00 101.88 18.55L101.88 18.55Q101.88 19.10 102.24 19.44Q102.60 19.78 103.13 19.78L103.13 19.78L106.87 19.78Q107.40 19.78 107.77 19.45Q108.14 19.13 108.14 18.58L108.14 18.58Q108.14 18.02 107.78 17.71Q107.42 17.40 106.87 17.40L106.87 17.40L103.13 17.40ZM121.22 4.44Q124.70 4.44 126.54 6.07Q128.38 7.70 128.38 11.06L128.38 11.06L128.38 11.88L118.87 11.88Q118.87 13.25 119.48 13.94Q120.10 14.64 121.42 14.64L121.42 14.64Q122.62 14.64 123.18 14.14Q123.74 13.63 123.74 12.79L123.74 12.79L128.38 12.79Q128.38 15.10 126.62 16.39Q124.87 17.69 121.51 17.69L121.51 17.69Q117.98 17.69 116.04 16.04Q114.10 14.40 114.10 11.06L114.10 11.06Q114.10 7.80 115.99 6.12Q117.89 4.44 121.22 4.44L121.22 4.44ZM121.42 7.49Q119.16 7.49 118.90 9.62L118.90 9.62L123.55 9.62Q123.55 8.64 122.99 8.06Q122.42 7.49 121.42 7.49L121.42 7.49ZM136.94 4.44Q139.85 4.44 141.67 5.41Q143.50 6.38 143.50 8.57L143.50 8.57L143.50 13.51Q143.50 13.92 143.69 14.18Q143.88 14.45 144.26 14.45L144.26 14.45L145.13 14.45L145.13 17.21Q145.06 17.26 144.76 17.36Q144.46 17.47 143.90 17.58Q143.35 17.69 142.63 17.69L142.63 17.69Q141.24 17.69 140.34 17.27Q139.44 16.85 139.10 16.10L139.10 16.10Q138.19 16.82 137.06 17.26Q135.94 17.69 134.42 17.69L134.42 17.69Q129.96 17.69 129.96 14.14L129.96 14.14Q129.96 12.29 130.96 11.32Q131.95 10.34 133.82 9.98Q135.70 9.62 138.72 9.62L138.72 9.62L138.72 9.00Q138.72 8.26 138.20 7.87Q137.69 7.49 136.87 7.49L136.87 7.49Q136.13 7.49 135.59 7.75Q135.05 8.02 135.05 8.59L135.05 8.59L135.05 8.69L130.34 8.69Q130.32 8.57 130.32 8.35L130.32 8.35Q130.32 6.55 132.04 5.50Q133.75 4.44 136.94 4.44L136.94 4.44ZM138.72 11.88Q136.68 11.88 135.71 12.32Q134.74 12.77 134.74 13.51L134.74 13.51Q134.74 14.71 136.37 14.71L136.37 14.71Q137.30 14.71 138.01 14.21Q138.72 13.70 138.72 12.96L138.72 12.96L138.72 11.88ZM154.39 4.42Q154.94 4.42 155.38 4.55Q155.81 4.68 155.81 4.70L155.81 4.70L155.81 8.71L154.27 8.71Q152.78 8.71 152.12 9.48Q151.46 10.25 151.46 11.76L151.46 11.76L151.46 17.40L146.69 17.40L146.69 4.73L150.60 4.73L150.91 6.65Q151.34 5.54 152.28 4.98Q153.22 4.42 154.39 4.42L154.39 4.42Z" transform="translate(0, 43)"></path></svg>